<svg xmlns="http://www.w3.org/2000/svg" viewBox="0 0 132.11 132.13"><defs><style>.cls-1{fill:#f18318;}</style></defs><g id="Layer_2" data-name="Layer 2"><g id="Layer_1-2" data-name="Layer 1"><path class="cls-1" d="M3.73,44.14a66.35,66.35,0,0,0-.24,43.17c.13-2.21.24-5.22.24-7.9Z"/><path class="cls-1" d="M18.89,83.89c6.26,0,10-5.1,10-12.64,0-6.6-3.4-12.24-9.79-12.24A9.53,9.53,0,0,0,10,66.35a11.57,11.57,0,0,0-.34,2.45v5.91a10.93,10.93,0,0,0,.27,2.18A9.22,9.22,0,0,0,18.89,83.89Z"/><path class="cls-1" d="M107,71.52c0,7.21,4.15,12.65,10,12.65s10-5.38,10-12.79c0-5.57-2.79-12.65-9.86-12.65S107,65.26,107,71.52Z"/><path class="cls-1" d="M116.75,88.65c-8.91,0-15.77-6.52-15.77-16.93,0-11,7.2-17.47,16.32-17.47,7.22,0,12.65,4,14.81,10.4a66.07,66.07,0,0,0-126.6-25H9.65V60.3h.13c2.11-3.67,5.92-6,11.22-6,8.16,0,13.94,6.8,13.87,16.79,0,11.77-7.41,17.61-14.75,17.61-4.76,0-8.57-1.83-11-6.18H8.9l-.27,5.44H3.7a66.08,66.08,0,0,0,126.55-6.16A16,16,0,0,1,116.75,88.65ZM88.16,9.19l14,14-14,14-14-14ZM73,31.75l6.58,6.59L73,44.92l-6.58-6.58ZM59.56,78.45c-4.28,11.29-7.21,17.07-11.29,20.61a16.21,16.21,0,0,1-7.34,3.87l-1.5-5A15.8,15.8,0,0,0,44.67,95a18.17,18.17,0,0,0,5-6.67,4.33,4.33,0,0,0,.48-1.42,5.34,5.34,0,0,0-.41-1.57L37.6,55h6.52l7.21,19.45c.75,2.18,1.57,4.76,2.11,6.73h.14c.61-2,1.29-4.48,2.1-6.86L62.21,55h6.33Zm28.83,5.38a17,17,0,0,0,7.35-1.64l1,4.49a22,22,0,0,1-9.45,1.91c-9.93,0-16.39-6.74-16.39-16.8S77.85,54.31,88.6,54.31A20.08,20.08,0,0,1,96.89,56l-1.36,4.63a13.79,13.79,0,0,0-6.93-1.57C81.05,59.07,77,64.65,77,71.52,77,79.13,81.87,83.83,88.39,83.83Z"/></g></g></svg>